<svg width="20" height="13" viewBox="0 0 33 26" fill="none" xmlns="http://www.w3.org/2000/svg">
<path d="M30.6458 0.775952L16.8656 20.7007L3.08529 0.775952C2.83908 0.419244 2.50857 0.219543 2.1644 0.219543C1.82023 0.219543 1.48972 0.419244 1.24351 0.775952C1.1243 0.949206 1.02959 1.156 0.964932 1.38423C0.900277 1.61246 0.866974 1.85753 0.866974 2.10508C0.866974 2.35264 0.900277 2.59771 0.964932 2.82594C1.02959 3.05417 1.1243 3.26096 1.24351 3.43422L15.9033 24.6349C16.1608 25.0071 16.5061 25.2155 16.8656 25.2155C17.2251 25.2155 17.5704 25.0071 17.8278 24.6349L32.4876 3.43831C32.6077 3.26492 32.7031 3.05762 32.7683 2.82864C32.8334 2.59965 32.867 2.35363 32.867 2.10508C32.867 1.85654 32.8334 1.61052 32.7683 1.38153C32.7031 1.15255 32.6077 0.945245 32.4876 0.771861C32.2414 0.415152 31.9109 0.215454 31.5667 0.215454C31.2226 0.215454 30.892 0.415152 30.6458 0.771861V0.775952Z" fill="black"/>
</svg>
