<svg width="22" height="22" viewBox="0 0 22 22" fill="none" xmlns="http://www.w3.org/2000/svg">
<path d="M21.8719 20.3652L14.7707 13.2641C15.8727 11.8395 16.4688 10.0977 16.4688 8.26562C16.4688 6.07266 15.6129 4.01641 14.0652 2.46602C12.5176 0.915625 10.4559 0.0625 8.26562 0.0625C6.07539 0.0625 4.01367 0.918359 2.46602 2.46602C0.915625 4.01367 0.0625 6.07266 0.0625 8.26562C0.0625 10.4559 0.918359 12.5176 2.46602 14.0652C4.01367 15.6156 6.07266 16.4688 8.26562 16.4688C10.0977 16.4688 11.8367 15.8727 13.2613 14.7734L20.3625 21.8719C20.3833 21.8927 20.408 21.9092 20.4353 21.9205C20.4625 21.9318 20.4916 21.9376 20.5211 21.9376C20.5506 21.9376 20.5797 21.9318 20.6069 21.9205C20.6341 21.9092 20.6589 21.8927 20.6797 21.8719L21.8719 20.6824C21.8927 20.6616 21.9092 20.6369 21.9205 20.6097C21.9318 20.5825 21.9376 20.5533 21.9376 20.5238C21.9376 20.4944 21.9318 20.4652 21.9205 20.438C21.9092 20.4108 21.8927 20.3861 21.8719 20.3652V20.3652ZM12.5969 12.5969C11.4375 13.7535 9.90078 14.3906 8.26562 14.3906C6.63047 14.3906 5.09375 13.7535 3.93438 12.5969C2.77773 11.4375 2.14062 9.90078 2.14062 8.26562C2.14062 6.63047 2.77773 5.09102 3.93438 3.93438C5.09375 2.77773 6.63047 2.14062 8.26562 2.14062C9.90078 2.14062 11.4402 2.775 12.5969 3.93438C13.7535 5.09375 14.3906 6.63047 14.3906 8.26562C14.3906 9.90078 13.7535 11.4402 12.5969 12.5969Z" fill="#959595"/>
</svg>
